<svg width="24" height="24" viewBox="0 0 24 24" fill="none" xmlns="http://www.w3.org/2000/svg">
<g clip-path="url(#clip0_249_369)">
<path d="M19.9128 8.57339C19.9128 8.54967 19.9128 8.52595 19.9128 8.5012C19.9128 4.13297 16.3717 0.591797 12.0034 0.591797C7.6352 0.591797 4.09402 4.13297 4.09402 8.5012C4.09402 8.52591 4.09402 8.54962 4.09402 8.57339C0.270009 10.6849 -1.11829 15.4965 0.993197 19.3206C3.10468 23.1446 7.91635 24.5329 11.7404 22.4214C11.829 22.3725 11.9168 22.3218 12.0035 22.2695C15.7436 24.5263 20.605 23.3238 22.8618 19.5837C25.1185 15.8436 23.9161 10.9821 20.1759 8.72536C20.0892 8.673 20.0015 8.62233 19.9128 8.57339ZM12.0034 19.8443C10.9398 18.894 10.2546 17.592 10.0735 16.1773C11.3393 16.4943 12.6636 16.4943 13.9294 16.1773C13.7483 17.5897 13.0645 18.8897 12.0034 19.8394V19.8443ZM12.0034 14.4333C11.3792 14.4336 10.7589 14.3352 10.1655 14.1416C10.4352 12.9296 11.078 11.8325 12.0034 11.0046C12.9289 11.8325 13.5716 12.9296 13.8414 14.1416C13.248 14.3352 12.6276 14.4336 12.0034 14.4333ZM8.37104 13.1875C7.27679 12.3401 6.51273 11.1372 6.21081 9.78652C7.54079 9.35339 8.98102 9.40416 10.2772 9.92986C9.38851 10.8462 8.73451 11.9639 8.37104 13.1875ZM13.7297 9.92489C15.0258 9.39919 16.4661 9.34842 17.7961 9.78155C17.4952 11.134 16.731 12.3389 15.6358 13.1875C15.2731 11.9621 14.6191 10.8427 13.7297 9.92489ZM12.0034 2.56917C14.9881 2.57302 17.5066 4.79063 17.888 7.75083C15.894 7.25011 13.7834 7.54552 12.0034 8.57438C10.2235 7.54547 8.11285 7.25011 6.11884 7.75083C6.50031 4.79067 9.01881 2.57302 12.0034 2.56917ZM2.1167 15.4219C2.11688 13.5882 2.96602 11.8578 4.41634 10.7356C4.99337 12.6811 6.29303 14.3321 8.04873 15.3497C8.04873 15.3735 8.04873 15.3972 8.04873 15.4219C8.04765 17.4745 8.8471 19.4466 10.2772 20.919C7.24098 22.1497 3.78193 20.6861 2.55118 17.6499C2.26431 16.9421 2.11674 16.1857 2.1167 15.4219ZM15.9581 21.354C15.1942 21.3545 14.4374 21.2068 13.7297 20.919C15.1598 19.4466 15.9592 17.4745 15.9581 15.422C15.9581 15.3973 15.9581 15.3735 15.9581 15.3498C17.7142 14.3323 19.0142 12.6813 19.5915 10.7356C22.1797 12.7443 22.6495 16.4707 20.6409 19.059C19.5179 20.5058 17.7896 21.3529 15.9581 21.354Z" fill="#C1C1C1"/>
</g>
<defs>
<clipPath id="clip0_249_369">
<rect width="24" height="24" fill="white"/>
</clipPath>
</defs>
</svg>
