<svg width="8" height="8" viewBox="0 0 8 8" fill="none" xmlns="http://www.w3.org/2000/svg">
<path d="M6.75 0H1.25C0.559644 0 0 0.559644 0 1.25V6.75C0 7.44036 0.559644 8 1.25 8H6.75C7.44036 8 8 7.44036 8 6.75V1.25C8 0.559644 7.44036 0 6.75 0Z" fill="#1877F2"/>
<path d="M6 4C6 2.9 5.1 2 4 2C2.9 2 2 2.9 2 4C2 5 2.725 5.825 3.675 5.975V4.575H3.175V4H3.675V3.55C3.675 3.05 3.975 2.775 4.425 2.775C4.65 2.775 4.875 2.825 4.875 2.825V3.325H4.625C4.375 3.325 4.3 3.475 4.3 3.625V4H4.85L4.75 4.575H4.275V6C5.275 5.85 6 5 6 4Z" fill="white"/>
</svg>
