<svg width="25" height="24" viewBox="0 0 25 24" fill="none" xmlns="http://www.w3.org/2000/svg">
<g clip-path="url(#clip0_3730_4732)">
<path d="M23.818 7.12C23.398 6.92 22.911 6.974 22.505 7.301L19.5 11V8.203C19.501 7.737 19.241 7.321 18.82 7.119C18.4 6.919 17.913 6.973 17.507 7.3L14.501 11.001V8.204C14.502 7.738 14.242 7.322 13.821 7.12C13.401 6.92 12.914 6.974 12.508 7.301L8.785 11.012L6.836 1.577C6.639 0.663 5.816 0 4.882 0H2.5C1.395 0 0.5 0.895 0.5 2V19C0.5 21.761 2.739 24 5.5 24H19.5C22.261 24 24.5 21.761 24.5 19V8.204C24.5 7.738 24.239 7.322 23.818 7.12ZM10.5 18C10.5 18.552 10.052 19 9.5 19H8.5C7.948 19 7.5 18.552 7.5 18V17C7.5 16.448 7.948 16 8.5 16H9.5C10.052 16 10.5 16.448 10.5 17V18ZM15.5 18C15.5 18.552 15.052 19 14.5 19H13.5C12.948 19 12.5 18.552 12.5 18V17C12.5 16.448 12.948 16 13.5 16H14.5C15.052 16 15.5 16.448 15.5 17V18ZM20.5 18C20.5 18.552 20.052 19 19.5 19H18.5C17.948 19 17.5 18.552 17.5 18V17C17.5 16.448 17.948 16 18.5 16H19.5C20.052 16 20.5 16.448 20.5 17V18Z" fill="black"/>
</g>
<defs>
<clipPath id="clip0_3730_4732">
<rect width="24" height="24" fill="white" transform="translate(0.5)"/>
</clipPath>
</defs>
</svg>
