<svg width="8" height="8" viewBox="0 0 8 8" fill="none" xmlns="http://www.w3.org/2000/svg">
<path d="M6.75 0H1.25C0.559644 0 0 0.559644 0 1.25V6.75C0 7.44036 0.559644 8 1.25 8H6.75C7.44036 8 8 7.44036 8 6.75V1.25C8 0.559644 7.44036 0 6.75 0Z" fill="#F00073"/>
<path d="M3.9998 1.80078C4.5498 1.80078 4.6248 1.80078 4.8498 1.80078C5.0498 1.80078 5.1498 1.85078 5.2248 1.87578C5.3248 1.92578 5.3998 1.95078 5.4748 2.02578C5.5498 2.10078 5.5998 2.17578 5.6248 2.27578C5.6498 2.35078 5.6748 2.45078 5.6998 2.65078C5.6998 2.87578 5.6998 2.92578 5.6998 3.50078C5.6998 4.07578 5.6998 4.12578 5.6998 4.35078C5.6998 4.55078 5.6498 4.65078 5.6248 4.72578C5.5748 4.82578 5.5498 4.90078 5.4748 4.97578C5.3998 5.05078 5.3248 5.10078 5.2248 5.12578C5.1498 5.15078 5.0498 5.17578 4.8498 5.20078C4.6248 5.20078 4.5748 5.20078 3.9998 5.20078C3.4248 5.20078 3.3748 5.20078 3.1498 5.20078C2.9498 5.20078 2.8498 5.15078 2.7748 5.12578C2.6748 5.07578 2.5998 5.05078 2.5248 4.97578C2.4498 4.90078 2.3998 4.82578 2.3748 4.72578C2.3498 4.65078 2.3248 4.55078 2.2998 4.35078C2.2998 4.12578 2.2998 4.07578 2.2998 3.50078C2.2998 2.92578 2.2998 2.87578 2.2998 2.65078C2.2998 2.45078 2.3498 2.35078 2.3748 2.27578C2.4248 2.17578 2.4498 2.10078 2.5248 2.02578C2.5998 1.95078 2.6748 1.90078 2.7748 1.87578C2.8498 1.85078 2.9498 1.82578 3.1498 1.80078C3.3748 1.80078 3.4498 1.80078 3.9998 1.80078ZM3.9998 1.42578C3.4248 1.42578 3.3748 1.42578 3.1498 1.42578C2.9248 1.42578 2.7748 1.47578 2.6498 1.52578C2.5248 1.57578 2.3998 1.65078 2.2748 1.77578C2.1498 1.90078 2.0998 2.00078 2.0248 2.15078C1.9748 2.27578 1.9498 2.42578 1.9248 2.65078C1.9248 2.87578 1.9248 2.95078 1.9248 3.50078C1.9248 4.07578 1.9248 4.12578 1.9248 4.35078C1.9248 4.57578 1.9748 4.72578 2.0248 4.85078C2.0748 4.97578 2.1498 5.10078 2.2748 5.22578C2.3998 5.35078 2.4998 5.40078 2.6498 5.47578C2.7748 5.52578 2.9248 5.55078 3.1498 5.57578C3.3748 5.57578 3.4498 5.57578 3.9998 5.57578C4.5498 5.57578 4.6248 5.57578 4.8498 5.57578C5.0748 5.57578 5.2248 5.52578 5.3498 5.47578C5.4748 5.42578 5.5998 5.35078 5.7248 5.22578C5.8498 5.10078 5.8998 5.00078 5.9748 4.85078C6.02481 4.72578 6.0498 4.57578 6.0748 4.35078C6.0748 4.12578 6.0748 4.05078 6.0748 3.50078C6.0748 2.95078 6.0748 2.87578 6.0748 2.65078C6.0748 2.42578 6.02481 2.27578 5.9748 2.15078C5.9248 2.02578 5.8498 1.90078 5.7248 1.77578C5.5998 1.65078 5.4998 1.60078 5.3498 1.52578C5.2248 1.47578 5.0748 1.45078 4.8498 1.42578C4.6248 1.42578 4.5748 1.42578 3.9998 1.42578Z" fill="white"/>
<path d="M3.9998 2.42578C3.3998 2.42578 2.9248 2.90078 2.9248 3.50078C2.9248 4.10078 3.3998 4.57578 3.9998 4.57578C4.5998 4.57578 5.0748 4.10078 5.0748 3.50078C5.0748 2.90078 4.5998 2.42578 3.9998 2.42578ZM3.9998 4.20078C3.6248 4.20078 3.2998 3.90078 3.2998 3.50078C3.2998 3.12578 3.5998 2.80078 3.9998 2.80078C4.3748 2.80078 4.6998 3.10078 4.6998 3.50078C4.6998 3.87578 4.3748 4.20078 3.9998 4.20078Z" fill="white"/>
<path d="M5.0998 2.65078C5.23788 2.65078 5.3498 2.53885 5.3498 2.40078C5.3498 2.26271 5.23788 2.15078 5.0998 2.15078C4.96173 2.15078 4.8498 2.26271 4.8498 2.40078C4.8498 2.53885 4.96173 2.65078 5.0998 2.65078Z" fill="white"/>
</svg>
