<svg width="8" height="8" viewBox="0 0 8 8" fill="none" xmlns="http://www.w3.org/2000/svg">
<path d="M6.75 0H1.25C0.559644 0 0 0.559644 0 1.25V6.75C0 7.44036 0.559644 8 1.25 8H6.75C7.44036 8 8 7.44036 8 6.75V1.25C8 0.559644 7.44036 0 6.75 0Z" fill="#2867B2"/>
<path d="M2.9 6H2.05V3.325H2.9V6ZM2.475 2.95C2.2 2.95 2 2.75 2 2.475C2 2.2 2.225 2 2.475 2C2.75 2 2.95 2.2 2.95 2.475C2.95 2.75 2.75 2.95 2.475 2.95ZM6 6H5.15V4.55C5.15 4.125 4.975 4 4.725 4C4.475 4 4.225 4.2 4.225 4.575V6H3.375V3.325H4.175V3.7C4.25 3.525 4.55 3.25 4.975 3.25C5.45 3.25 5.95 3.525 5.95 4.35V6H6Z" fill="white"/>
</svg>
