<svg width="12" height="12" viewBox="0 0 12 12" fill="none" xmlns="http://www.w3.org/2000/svg">
<g clip-path="url(#clip0_3916_2933)">
<path d="M6.00027 0.0214844C4.67724 0.0229399 3.4088 0.549122 2.47323 1.4846C1.53766 2.42008 1.01135 3.68846 1.00977 5.01149C1.00977 6.29649 2.00477 8.30749 3.96727 10.9885C4.2009 11.3085 4.50679 11.5689 4.86007 11.7484C5.21334 11.9279 5.604 12.0215 6.00027 12.0215C6.39653 12.0215 6.78719 11.9279 7.14046 11.7484C7.49374 11.5689 7.79964 11.3085 8.03327 10.9885C9.99577 8.30749 10.9908 6.29649 10.9908 5.01149C10.9892 3.68846 10.4629 2.42008 9.5273 1.4846C8.59173 0.549122 7.3233 0.0229399 6.00027 0.0214844ZM6.00027 7.00049C5.6047 7.00049 5.21802 6.88319 4.88913 6.66342C4.56023 6.44366 4.30388 6.1313 4.15251 5.76585C4.00113 5.4004 3.96152 4.99827 4.03869 4.6103C4.11587 4.22234 4.30635 3.86598 4.58605 3.58627C4.86576 3.30657 5.22212 3.11608 5.61009 3.03891C5.99805 2.96174 6.40018 3.00135 6.76563 3.15273C7.13108 3.3041 7.44344 3.56045 7.6632 3.88934C7.88297 4.21824 8.00027 4.60492 8.00027 5.00048C8.00027 5.53092 7.78955 6.03963 7.41448 6.4147C7.03941 6.78977 6.5307 7.00049 6.00027 7.00049Z" fill="#191D20"/>
</g>
<defs>
<clipPath id="clip0_3916_2933">
<rect width="12" height="12" fill="white"/>
</clipPath>
</defs>
</svg>
