<svg width="12" height="12" viewBox="0 0 12 12" fill="none" xmlns="http://www.w3.org/2000/svg">
<g clip-path="url(#clip0_3916_2928)">
<path d="M11.5 8C11.4226 7.99999 11.3463 7.98202 11.277 7.9475L10.277 7.4475C10.1583 7.38822 10.068 7.28423 10.026 7.15839C9.98403 7.03256 9.99373 6.89518 10.053 6.7765C10.1123 6.65782 10.2163 6.56754 10.3421 6.52553C10.4679 6.48352 10.6053 6.49322 10.724 6.5525L11.724 7.0525C11.8249 7.1028 11.9059 7.18575 11.9537 7.28787C12.0016 7.38999 12.0135 7.50529 11.9876 7.61504C11.9616 7.72478 11.8993 7.82254 11.8108 7.89242C11.7223 7.96231 11.6128 8.00022 11.5 8ZM10.7235 3.45L11.7235 2.95C11.8422 2.89072 11.9325 2.78673 11.9745 2.66089C12.0165 2.53506 12.0068 2.39768 11.9475 2.279C11.8882 2.16032 11.7842 2.07004 11.6584 2.02803C11.5326 1.98602 11.3952 1.99572 11.2765 2.055L10.2765 2.555C10.1578 2.61428 10.0675 2.71827 10.0255 2.84411C9.98353 2.96994 9.99323 3.10732 10.0525 3.226C10.1118 3.34468 10.2158 3.43496 10.3416 3.47697C10.4674 3.51898 10.6048 3.50928 10.7235 3.45ZM12 5C12 4.86739 11.9473 4.74021 11.8536 4.64645C11.7598 4.55268 11.6326 4.5 11.5 4.5H10.5C10.3674 4.5 10.2402 4.55268 10.1464 4.64645C10.0527 4.74021 10 4.86739 10 5C10 5.13261 10.0527 5.25979 10.1464 5.35355C10.2402 5.44732 10.3674 5.5 10.5 5.5H11.5C11.6326 5.5 11.7598 5.44732 11.8536 5.35355C11.9473 5.25979 12 5.13261 12 5ZM9 9.5V0.5C9 0.367392 8.94732 0.240215 8.85355 0.146447C8.75979 0.0526784 8.63261 0 8.5 0C8.36739 0 8.24022 0.0526784 8.14645 0.146447C8.05268 0.240215 8 0.367392 8 0.5C8 1.9745 6.7085 2.5 5.5 2.5H2C1.46957 2.5 0.960859 2.71071 0.585787 3.08579C0.210714 3.46086 0 3.96957 0 4.5L0 5.5C0 6.03043 0.210714 6.53914 0.585787 6.91421C0.960859 7.28929 1.46957 7.5 2 7.5H5.5C6.7085 7.5 8 8.0255 8 9.5C8 9.63261 8.05268 9.75979 8.14645 9.85355C8.24022 9.94732 8.36739 10 8.5 10C8.63261 10 8.75979 9.94732 8.85355 9.85355C8.94732 9.75979 9 9.63261 9 9.5ZM4.093 8.5H2C1.76721 8.49907 1.53531 8.47105 1.309 8.4165L2.559 11.2075C2.66398 11.4434 2.83509 11.6438 3.05162 11.7845C3.26814 11.9251 3.5208 12 3.779 12C3.98443 11.9997 4.18652 11.948 4.36686 11.8497C4.5472 11.7513 4.70005 11.6094 4.81149 11.4368C4.92292 11.2642 4.9894 11.0665 5.00486 10.8616C5.02032 10.6568 4.98427 10.4513 4.9 10.264L4.093 8.5Z" fill="#191D20"/>
</g>
<defs>
<clipPath id="clip0_3916_2928">
<rect width="12" height="12" fill="white"/>
</clipPath>
</defs>
</svg>
