<svg width="24" height="24" viewBox="0 0 24 24" fill="none" xmlns="http://www.w3.org/2000/svg">
<g clip-path="url(#clip0_250_388)">
<path d="M16 7H8C7.45 7 7 7.45 7 8V16C7 16.55 7.45 17 8 17H16C16.55 17 17 16.55 17 16V8C17 7.45 16.55 7 16 7ZM15 15H9V9H15V15ZM23 11C23.55 11 24 10.55 24 10C24 9.45 23.55 9 23 9H22V7H23C23.55 7 24 6.55 24 6C24 5.45 23.55 5 23 5H21.58C21.08 3.85 20.15 2.93 19 2.42V1C19 0.45 18.55 0 18 0C17.45 0 17 0.45 17 1V2H15V1C15 0.45 14.55 0 14 0C13.45 0 13 0.45 13 1V2H11V1C11 0.45 10.55 0 10 0C9.45 0 9 0.45 9 1V2H7V1C7 0.45 6.55 0 6 0C5.45 0 5 0.45 5 1V2.42C3.85 2.92 2.93 3.85 2.42 5H1C0.45 5 0 5.45 0 6C0 6.55 0.45 7 1 7H2V9H1C0.45 9 0 9.45 0 10C0 10.55 0.45 11 1 11H2V13H1C0.45 13 0 13.45 0 14C0 14.55 0.45 15 1 15H2V17H1C0.45 17 0 17.45 0 18C0 18.55 0.45 19 1 19H2.42C2.92 20.15 3.85 21.07 5 21.58V23C5 23.55 5.45 24 6 24C6.55 24 7 23.55 7 23V22H9V23C9 23.55 9.45 24 10 24C10.55 24 11 23.55 11 23V22H13V23C13 23.55 13.45 24 14 24C14.55 24 15 23.55 15 23V22H17V23C17 23.55 17.45 24 18 24C18.55 24 19 23.55 19 23V21.58C20.15 21.08 21.07 20.15 21.58 19H23C23.55 19 24 18.55 24 18C24 17.45 23.55 17 23 17H22V15H23C23.55 15 24 14.55 24 14C24 13.45 23.55 13 23 13H22V11H23ZM17 20H7C5.35 20 4 18.65 4 17V7C4 5.35 5.35 4 7 4H17C18.65 4 20 5.35 20 7V17C20 18.65 18.65 20 17 20Z" fill="#C1C1C1"/>
</g>
<defs>
<clipPath id="clip0_250_388">
<rect width="24" height="24" fill="white"/>
</clipPath>
</defs>
</svg>
