<svg width="24" height="24" viewBox="0 0 24 24" fill="none" xmlns="http://www.w3.org/2000/svg">
<mask id="mask0_3596_3484" style="mask-type:alpha" maskUnits="userSpaceOnUse" x="0" y="0" width="24" height="24">
<rect width="24" height="24" fill="#D9D9D9"/>
</mask>
<g mask="url(#mask0_3596_3484)">
<path d="M5 21.3508C4.71667 21.3508 4.47917 21.2473 4.2875 21.0404C4.09583 20.8335 4 20.5772 4 20.2713C4 19.9655 4.09583 19.7091 4.2875 19.5022C4.47917 19.2953 4.71667 19.1919 5 19.1919H6V11.6357C6 10.1424 6.41667 8.81558 7.25 7.65516C8.08333 6.49474 9.16667 5.73463 10.5 5.37481V4.61919C10.5 4.16941 10.6458 3.7871 10.9375 3.47226C11.2292 3.15742 11.5833 3 12 3C12.4167 3 12.7708 3.15742 13.0625 3.47226C13.3542 3.7871 13.5 4.16941 13.5 4.61919V5.37481C14.8333 5.73463 15.9167 6.49474 16.75 7.65516C17.5833 8.81558 18 10.1424 18 11.6357V19.1919H19C19.2833 19.1919 19.5208 19.2953 19.7125 19.5022C19.9042 19.7091 20 19.9655 20 20.2713C20 20.5772 19.9042 20.8335 19.7125 21.0404C19.5208 21.2473 19.2833 21.3508 19 21.3508H5ZM12 24.5891C11.45 24.5891 10.9792 24.3778 10.5875 23.955C10.1958 23.5322 10 23.0239 10 22.4302H14C14 23.0239 13.8042 23.5322 13.4125 23.955C13.0208 24.3778 12.55 24.5891 12 24.5891ZM8 19.1919H16V11.6357C16 10.4483 15.6083 9.43177 14.825 8.58619C14.0417 7.74062 13.1 7.31783 12 7.31783C10.9 7.31783 9.95833 7.74062 9.175 8.58619C8.39167 9.43177 8 10.4483 8 11.6357V19.1919Z" fill="#1C1B1F"/>
</g>
</svg>
