<svg width="24" height="24" viewBox="0 0 24 24" fill="none" xmlns="http://www.w3.org/2000/svg">
<path d="M18 24H6C2.691 24 0 21.309 0 18V2.5C0 1.121 1.121 0 2.5 0H3.79C4.959 0 5.986 0.829 6.233 1.971L8.084 10.505C8.084 10.505 11.205 7.397 11.233 7.374C11.748 6.96 12.44 6.883 13.035 7.17C13.63 7.456 14 8.044 14 8.704V9.592C14 9.592 16.205 7.397 16.233 7.374C16.748 6.96 17.439 6.883 18.035 7.17C18.63 7.456 19 8.044 19 8.704V9.592C19 9.592 21.205 7.397 21.233 7.374C21.748 6.96 22.44 6.883 23.035 7.17C23.63 7.456 24 8.044 24 8.704V18C24 21.309 21.309 24 18 24ZM2.5 2C2.225 2 2 2.225 2 2.5V18C2 20.206 3.794 22 6 22H18C20.206 22 22 20.206 22 18V9.425L18.706 12.708C18.42 12.993 17.991 13.076 17.616 12.924C17.243 12.769 17 12.404 17 12V9.425L13.706 12.708C13.419 12.993 12.989 13.076 12.616 12.924C12.243 12.769 12 12.404 12 12V9.425L8.706 12.708C8.518 12.896 8.265 13 8 13H7.385C6.914 13 6.507 12.672 6.407 12.212L4.278 2.395C4.229 2.166 4.023 2 3.79 2H2.5ZM10 18V17C10 16.448 9.552 16 9 16H8C7.448 16 7 16.448 7 17V18C7 18.552 7.448 19 8 19H9C9.552 19 10 18.552 10 18ZM15 18V17C15 16.448 14.552 16 14 16H13C12.448 16 12 16.448 12 17V18C12 18.552 12.448 19 13 19H14C14.552 19 15 18.552 15 18ZM20 18V17C20 16.448 19.552 16 19 16H18C17.448 16 17 16.448 17 17V18C17 18.552 17.448 19 18 19H19C19.552 19 20 18.552 20 18Z" fill="#C1C1C1"/>
</svg>
