<svg width="8" height="8" viewBox="0 0 8 8" fill="none" xmlns="http://www.w3.org/2000/svg">
<path d="M6.75 0H1.25C0.559644 0 0 0.559644 0 1.25V6.75C0 7.44036 0.559644 8 1.25 8H6.75C7.44036 8 8 7.44036 8 6.75V1.25C8 0.559644 7.44036 0 6.75 0Z" fill="#25D366"/>
<path fill-rule="evenodd" clip-rule="evenodd" d="M5.4 2.575C5.025 2.2 4.525 2 4 2C2.9 2 2 2.9 2 4C2 4.35 2.1 4.7 2.275 5L2 6L3.05 5.725C3.35 5.875 3.675 5.975 4 5.975C5.1 5.975 6 5.075 6 3.975C6 3.45 5.775 2.95 5.4 2.575ZM4 5.65C3.7 5.65 3.4 5.575 3.15 5.425L3.1 5.4L2.475 5.575L2.65 4.975L2.6 4.9C2.425 4.625 2.35 4.325 2.35 4.025C2.35 3.125 3.1 2.375 4 2.375C4.45 2.375 4.85 2.55 5.175 2.85C5.5 3.175 5.65 3.575 5.65 4.025C5.65 4.9 4.925 5.65 4 5.65ZM4.9 4.4C4.85 4.375 4.6 4.25 4.55 4.25C4.5 4.225 4.475 4.225 4.45 4.275C4.425 4.325 4.325 4.425 4.3 4.475C4.275 4.5 4.25 4.5 4.2 4.5C4.15 4.475 4 4.425 3.8 4.25C3.65 4.125 3.55 3.95 3.525 3.9C3.5 3.85 3.525 3.825 3.55 3.8C3.575 3.775 3.6 3.75 3.625 3.725C3.65 3.7 3.65 3.675 3.675 3.65C3.7 3.625 3.675 3.6 3.675 3.575C3.675 3.55 3.575 3.3 3.525 3.2C3.5 3.125 3.45 3.125 3.425 3.125C3.4 3.125 3.375 3.125 3.325 3.125C3.3 3.125 3.25 3.125 3.2 3.175C3.15 3.225 3.025 3.35 3.025 3.6C3.025 3.85 3.2 4.075 3.225 4.125C3.25 4.15 3.575 4.675 4.075 4.875C4.5 5.05 4.575 5 4.675 5C4.775 5 4.975 4.875 5 4.775C5.05 4.65 5.05 4.55 5.025 4.55C5 4.425 4.95 4.425 4.9 4.4Z" fill="white"/>
</svg>
