<svg width="8" height="8" viewBox="0 0 8 8" fill="none" xmlns="http://www.w3.org/2000/svg">
<path d="M0 1.25C0 0.559644 0.559644 0 1.25 0H6.75C7.44036 0 8 0.559644 8 1.25V6.75C8 7.44036 7.44036 8 6.75 8H1.25C0.559644 8 0 7.44036 0 6.75V1.25Z" fill="black"/>
<path d="M4.38054 3.19373L5.86963 1.5H5.51677L4.22379 2.97064L3.19109 1.5H2L3.56164 3.72387L2 5.5H2.35289L3.7183 3.94695L4.80891 5.5H6L4.38046 3.19373H4.38054ZM3.89722 3.74346L3.73899 3.52201L2.48004 1.75994H3.02205L4.03804 3.18199L4.19627 3.40344L5.51693 5.25189H4.97492L3.89722 3.74354V3.74346Z" fill="white"/>
</svg>
