<svg width="8" height="8" viewBox="0 0 8 8" fill="none" xmlns="http://www.w3.org/2000/svg">
<path d="M6.75 0H1.25C0.559644 0 0 0.559644 0 1.25V6.75C0 7.44036 0.559644 8 1.25 8H6.75C7.44036 8 8 7.44036 8 6.75V1.25C8 0.559644 7.44036 0 6.75 0Z" fill="#FF0000"/>
<path d="M5.9 3.02461C5.85 2.84961 5.725 2.72461 5.55 2.67461C5.25 2.59961 3.975 2.59961 3.975 2.59961C3.975 2.59961 2.725 2.59961 2.4 2.67461C2.225 2.72461 2.1 2.84961 2.05 3.02461C2 3.34961 2 3.99961 2 3.99961C2 3.99961 2 4.64961 2.075 4.97461C2.125 5.14961 2.25 5.27461 2.425 5.32461C2.725 5.39961 4 5.39961 4 5.39961C4 5.39961 5.25 5.39961 5.575 5.32461C5.75 5.27461 5.875 5.14961 5.925 4.97461C6 4.64961 6 3.99961 6 3.99961C6 3.99961 6 3.34961 5.9 3.02461ZM3.6 4.59961V3.39961L4.65 3.99961L3.6 4.59961Z" fill="white"/>
</svg>
