<svg width="48" height="48" viewBox="0 0 48 48" fill="none" xmlns="http://www.w3.org/2000/svg">
<rect width="48" height="48" rx="5" fill="#FFBB01"/>
<mask id="mask0_3678_2930" style="mask-type:alpha" maskUnits="userSpaceOnUse" x="6" y="6" width="36" height="36">
<rect x="6" y="6" width="36" height="36" fill="#D9D9D9"/>
</mask>
<g mask="url(#mask0_3678_2930)">
<path d="M12 36C11.175 36 10.4688 35.7063 9.88125 35.1188C9.29375 34.5312 9 33.825 9 33V15C9 14.175 9.29375 13.4688 9.88125 12.8813C10.4688 12.2938 11.175 12 12 12H36C36.825 12 37.5312 12.2938 38.1188 12.8813C38.7063 13.4688 39 14.175 39 15V33C39 33.825 38.7063 34.5312 38.1188 35.1188C37.5312 35.7063 36.825 36 36 36H12ZM24 25.2375C24.125 25.2375 24.2562 25.2188 24.3937 25.1813C24.5312 25.1438 24.6625 25.0875 24.7875 25.0125L35.4 18.375C35.6 18.25 35.75 18.0938 35.85 17.9062C35.95 17.7188 36 17.5125 36 17.2875C36 16.7875 35.7875 16.4125 35.3625 16.1625C34.9375 15.9125 34.5 15.925 34.05 16.2L24 22.5L13.95 16.2C13.5 15.925 13.0625 15.9188 12.6375 16.1813C12.2125 16.4438 12 16.8125 12 17.2875C12 17.5375 12.05 17.7563 12.15 17.9438C12.25 18.1313 12.4 18.275 12.6 18.375L23.2125 25.0125C23.3375 25.0875 23.4688 25.1438 23.6063 25.1813C23.7438 25.2188 23.875 25.2375 24 25.2375Z" fill="#1C1B1F"/>
</g>
</svg>
