<svg width="48" height="48" viewBox="0 0 48 48" fill="none" xmlns="http://www.w3.org/2000/svg">
<path d="M0 7.5C0 3.35786 3.35786 0 7.5 0H40.5C44.6421 0 48 3.35786 48 7.5V40.5C48 44.6421 44.6421 48 40.5 48H7.5C3.35786 48 0 44.6421 0 40.5V7.5Z" fill="black"/>
<path d="M26.2833 21.6624L35.2178 11.5H33.1006L25.3427 20.3238L19.1466 11.5H12L21.3698 24.8432L12 35.5H14.1173L22.3098 26.1817L28.8534 35.5H36L26.2827 21.6624H26.2833ZM23.3833 24.9608L22.4339 23.6321L14.8802 13.0596H18.1323L24.2282 21.5919L25.1776 22.9206L33.1016 34.0113H29.8495L23.3833 24.9613V24.9608Z" fill="white"/>
</svg>
